# xmcd
#
# Track frame offsets: 
#        150
#        10922
#        21767
#        30912
#        40490
#        53010
#        65560
#        75210
#        84552
#        95600
#        107225
#        120955
#        132987
#        145250
#        153980
#        162680
#        172932
#        183917
#        195912
#        205662
#        214677
#        223962
#        234005
#        242397
#        252552
#        261930
#        272460
#        282987
#
# Disc length: 3926 seconds
#
# Revision: 2
# Processed by: cddbd v1.5.2PL0 Copyright (c) Steve Scherf et al.
# Submitted via: ExactAudioCopy v1.0b3
#
DISCID=790f541c
DTITLE=Dave Rich - Ain´T It Fine
DYEAR=1900
DGENRE=Country
TTITLE0=Your Pretty Blue Eyes
TTITLE1=Ain't It Fine
TTITLE2=I'm Glad
TTITLE3=Didn´t Work Out, Did It
TTITLE4=I´m Sorry Goodbye
TTITLE5=Darling I'm Lonesome
TTITLE6=Tuggin' On My Heart Strings
TTITLE7=I Love 'Em All
TTITLE8=I Forgot
TTITLE9=I Think I'm Gonna Die
TTITLE10=Lonely Street
TTITLE11=Our Last Night Together
TTITLE12=City Lights
TTITLE13=Rosie Lets Get Cozy
TTITLE14=Burn On Love Fire
TTITLE15=Red Sweater
TTITLE16=I've Learned
TTITLE17=Red Beads
TTITLE18=School Blues
TTITLE19=Sunshine In My Heart
TTITLE20=Chicken House
TTITLE21=That's What This Whole World Needs
TTITLE22=Saved From Sin
TTITLE23=Brand New Feeling
TTITLE24=Where Else Would I Want To Be
TTITLE25=The Key To My Heart
TTITLE26=I've Thought It Over
TTITLE27=Just Like Mine
EXTD=
EXTT0=
EXTT1=
EXTT2=
EXTT3=
EXTT4=
EXTT5=
EXTT6=
EXTT7=
EXTT8=
EXTT9=
EXTT10=
EXTT11=
EXTT12=
EXTT13=
EXTT14=
EXTT15=
EXTT16=
EXTT17=
EXTT18=
EXTT19=
EXTT20=
EXTT21=
EXTT22=
EXTT23=
EXTT24=
EXTT25=
EXTT26=
EXTT27=
PLAYORDER=
